# xmcd
#
# Track frame offsets:
#	150
#	14809
#	29280
#	41757
#	55288
#	69480
#	84822
#	96857
#	111110
#	127747
#
# Disc length: 1909 seconds
#
# Revision: 2
# Processed by: cddbd v1.5PL3 Copyright (c) Steve Scherf et al.
# Submitted via: audiograbber 1.83.01
#
DISCID=7c07730a
DTITLE=Cal Smith - Cal Smith
DYEAR=1998
DGENRE=Country
TTITLE0=Arizona Whiz
TTITLE1=Together Alone
TTITLE2=You Should See Me Now
TTITLE3=Bring Me My Memories In Person
TTITLE4=The Lord Knows I'm Drinking
TTITLE5=I've Found Someone Of My Own
TTITLE6=Drinking Champagne
TTITLE7=The North Won The War Again Last Night
TTITLE8=Country Bumpkin
TTITLE9=It's Time To Pay The Fiddler
EXTD=
EXTT0=
EXTT1=
EXTT2=
EXTT3=
EXTT4=
EXTT5=
EXTT6=
EXTT7=
EXTT8=
EXTT9=
PLAYORDER=
